<svg xmlns="http://www.w3.org/2000/svg" width="72.567" height="76.75" viewBox="0 0 72.567 76.75">
  <path id="star" d="M70.291,28.7a3.838,3.838,0,0,0-3.225-2.847L46.726,23.816,38.682,3a3.616,3.616,0,0,0-6.889,0L23.75,23.816,3.406,25.858A3.846,3.846,0,0,0,.185,28.7a4.425,4.425,0,0,0,1.1,4.4L16.655,48.01,12.121,70.088a4.368,4.368,0,0,0,1.457,4.275,3.5,3.5,0,0,0,2.194.789,3.467,3.467,0,0,0,1.92-.591L35.238,62.969l17.54,11.593a3.439,3.439,0,0,0,4.117-.2,4.371,4.371,0,0,0,1.457-4.275L53.817,48.01l15.375-14.9a4.431,4.431,0,0,0,1.1-4.4Zm0,0" transform="translate(1.046 0.509)" fill="#ffc107" stroke="#fff" stroke-width="2"/>
</svg>
